<svg width="97" height="35" viewBox="0 0 97 35" fill="none" xmlns="http://www.w3.org/2000/svg">
<path d="M61.7483 30.3269V31.152H63.5202V31.8507H61.7483V32.6404H63.753V33.334H60.9484V29.6333H63.753V30.3269H61.7483ZM66.5637 33.334V33.0555C66.4473 33.2125 66.1131 33.3947 65.7183 33.3947C64.8374 33.3947 64.321 32.7417 64.321 31.9418C64.321 31.1419 64.8374 30.4889 65.7183 30.4889C66.1233 30.4889 66.422 30.6509 66.5637 30.8382V29.5067H67.313V33.334H66.5637ZM66.5941 31.9418C66.5941 31.4811 66.3005 31.152 65.8296 31.152C65.3487 31.152 65.0652 31.4862 65.0652 31.9418C65.0652 32.3822 65.3639 32.7265 65.8296 32.7265C66.3005 32.7265 66.5941 32.4278 66.5941 31.9418ZM69.1501 33.3947C68.3502 33.3947 68.0566 32.9239 68.0566 32.205V30.5597H68.821V32.205C68.821 32.6303 69.0742 32.7619 69.3627 32.7619C69.5753 32.7619 69.9145 32.6354 69.8943 32.0329V30.5597H70.6537V33.334H69.8943V33.096C69.712 33.2834 69.4437 33.3947 69.1501 33.3947ZM72.7809 33.4049C71.9507 33.4049 71.2622 32.7518 71.2622 31.9519C71.2622 31.152 71.9456 30.504 72.7759 30.504C73.3631 30.504 73.8592 30.7926 74.1427 31.314L73.4593 31.5824C73.2922 31.3039 73.0492 31.1672 72.7759 31.1672C72.3354 31.1672 72.0165 31.5014 72.0165 31.9519C72.0165 32.4075 72.3405 32.7366 72.7809 32.7366C73.0543 32.7366 73.3074 32.6202 73.4846 32.3316L74.1276 32.5847C73.8592 33.1315 73.4188 33.4049 72.7809 33.4049ZM76.7975 33.334V33.0555C76.681 33.2125 76.3469 33.3947 75.952 33.3947C75.0712 33.3947 74.5548 32.7417 74.5548 31.9418C74.5548 31.1419 75.0712 30.4889 75.952 30.4889C76.357 30.4889 76.6557 30.6509 76.7975 30.8382V30.5496H77.5467V33.334H76.7975ZM76.8278 31.9418C76.8278 31.4811 76.5342 31.152 76.0634 31.152C75.5825 31.152 75.299 31.4862 75.299 31.9418C75.299 32.3822 75.5977 32.7265 76.0634 32.7265C76.5342 32.7265 76.8278 32.4278 76.8278 31.9418ZM79.232 31.1672V32.3417C79.232 32.4936 79.237 32.7569 79.5762 32.7569C79.6623 32.7569 79.723 32.7518 79.7686 32.7467V33.3846C79.6775 33.3947 79.5357 33.4049 79.4294 33.4049C78.8422 33.4049 78.4827 33.2985 78.4827 32.7113V31.1672H78.1435V30.504H78.4827V29.7599H79.232V30.504H79.7889V31.1672H79.232ZM81.2021 29.8459C81.2021 30.0737 81.0148 30.256 80.787 30.256C80.5541 30.256 80.3617 30.0737 80.3617 29.8459C80.3617 29.6232 80.5541 29.4409 80.787 29.4409C81.0148 29.4409 81.2021 29.6232 81.2021 29.8459ZM80.4073 33.334V30.5547H81.1666V33.334H80.4073ZM83.2913 33.3998C82.4611 33.3998 81.7827 32.7518 81.7827 31.9469C81.7827 31.152 82.4611 30.499 83.2913 30.499C84.1216 30.499 84.8101 31.152 84.8101 31.9469C84.8101 32.7518 84.1216 33.3998 83.2913 33.3998ZM83.2913 31.1622C82.8661 31.1622 82.5269 31.5064 82.5269 31.9469C82.5269 32.4075 82.8559 32.7417 83.2913 32.7417C83.7216 32.7417 84.0558 32.3974 84.0558 31.9469C84.0558 31.5014 83.7216 31.1622 83.2913 31.1622ZM86.9228 30.499C87.7278 30.499 88.0214 30.9647 88.0214 31.6887V33.334H87.2468V31.6887C87.2468 31.2584 87.0038 31.1267 86.7102 31.1267C86.5026 31.1267 86.1635 31.2533 86.1786 31.8608V33.334H85.4243V30.5496H86.1786V30.7977C86.366 30.6104 86.6748 30.499 86.9228 30.499Z" fill="white"/>
<path d="M54.1 25.8002C53.8 25.8002 53.5 25.7002 53.3 25.6002C53.1 25.4002 52.9 25.2002 52.7 25.0002C52.6 24.7002 52.5 24.4002 52.5 24.1002C52.5 23.8002 52.6 23.5002 52.7 23.2002C52.8 22.9002 53 22.7002 53.3 22.6002C53.5 22.4002 53.8 22.4002 54.2 22.4002C54.4 22.4002 54.7 22.4002 54.9 22.5002C55.1 22.6002 55.3 22.7002 55.4 22.9002C55.5 23.1002 55.6 23.3002 55.6 23.5002V24.7002C55.6 24.9002 55.5 25.1002 55.4 25.3002C55.3 25.5002 55.1 25.6002 54.9 25.7002C54.6 25.7002 54.3 25.8002 54.1 25.8002ZM54.3 24.9002C54.5 24.9002 54.6 24.9002 54.8 24.8002C54.9 24.7002 55 24.6002 55.1 24.5002C55.2 24.4002 55.2 24.2002 55.2 24.0002C55.2 23.8002 55.2 23.7002 55.1 23.5002C55 23.4002 54.9 23.3002 54.8 23.2002C54.7 23.1002 54.5 23.1002 54.4 23.1002C54.2 23.1002 54.1 23.1002 53.9 23.2002C53.8 23.3002 53.7 23.4002 53.6 23.5002C53.5 23.6002 53.5 23.8002 53.5 24.0002C53.5 24.2002 53.5 24.3002 53.6 24.5002C53.7 24.6002 53.8 24.7002 53.9 24.8002C53.9 24.9002 54.1 24.9002 54.3 24.9002ZM56 25.7002H55.1V24.8002L55.2 24.0002L55 23.2002V20.7002H56V25.7002Z" fill="#F90052"/>
<path d="M57.2998 21.8001C57.0998 21.8001 56.9998 21.7001 56.8998 21.6001C56.7998 21.5001 56.7998 21.4001 56.7998 21.2001C56.7998 21.1001 56.7998 20.9001 56.8998 20.8001C56.9998 20.7001 57.0998 20.6001 57.2998 20.6001C57.4998 20.6001 57.5998 20.7001 57.6998 20.8001C57.7998 20.9001 57.7998 21.0001 57.7998 21.2001C57.7998 21.4001 57.7998 21.5001 57.6998 21.6001C57.5998 21.7001 57.3998 21.8001 57.2998 21.8001ZM56.7998 25.7001V22.3001H57.6998V25.7001H56.7998Z" fill="#F90052"/>
<path d="M59.9998 25.6002C59.6998 25.6002 59.3998 25.5002 59.1998 25.4002C58.9998 25.3002 58.7998 25.0002 58.5998 24.8002C58.4998 24.5002 58.3998 24.3002 58.3998 23.9002C58.3998 23.6002 58.4998 23.3002 58.5998 23.0002C58.6998 22.7002 58.8998 22.5002 59.1998 22.4002C59.3998 22.3002 59.6998 22.2002 59.9998 22.2002C60.2998 22.2002 60.4998 22.2002 60.6998 22.3002C60.8998 22.4002 61.0998 22.5002 61.1998 22.7002C61.2998 22.9002 61.3998 23.1002 61.3998 23.3002V24.4002C61.3998 24.6002 61.2998 24.8002 61.1998 25.0002C61.0998 25.2002 60.8998 25.3002 60.6998 25.4002C60.3998 25.6002 60.1998 25.6002 59.9998 25.6002ZM59.9998 27.2002C59.5998 27.2002 59.2998 27.1002 58.9998 27.0002C58.6998 26.9002 58.4998 26.7002 58.2998 26.5002L58.8998 25.9002C58.9998 26.1002 59.1998 26.2002 59.2998 26.3002C59.4998 26.4002 59.6998 26.4002 59.8998 26.4002C60.1998 26.4002 60.3998 26.3002 60.5998 26.2002C60.7998 26.1002 60.8998 25.9002 60.8998 25.6002V24.7002L61.0998 24.0002L60.9998 23.3002V22.4002H61.8998V25.6002C61.8998 25.9002 61.7998 26.2002 61.6998 26.5002C61.4998 26.8002 61.2998 26.9002 60.9998 27.1002C60.6998 27.2002 60.3998 27.2002 59.9998 27.2002ZM60.0998 24.8002C60.2998 24.8002 60.3998 24.8002 60.4998 24.7002C60.5998 24.6002 60.6998 24.5002 60.7998 24.4002C60.8998 24.3002 60.8998 24.1002 60.8998 24.0002C60.8998 23.8002 60.8998 23.7002 60.7998 23.6002C60.6998 23.5002 60.5998 23.4002 60.4998 23.3002C60.3998 23.2002 60.1998 23.2002 60.0998 23.2002C59.8998 23.2002 59.7998 23.2002 59.6998 23.3002C59.5998 23.4002 59.4998 23.5002 59.3998 23.6002C59.2998 23.7002 59.2998 23.9002 59.2998 24.0002C59.2998 24.2002 59.2998 24.3002 59.3998 24.4002C59.4998 24.5002 59.5998 24.6002 59.6998 24.7002C59.7998 24.7002 59.9998 24.8002 60.0998 24.8002Z" fill="#F90052"/>
<path d="M63.1001 21.8001C62.9001 21.8001 62.8001 21.7001 62.7001 21.6001C62.6001 21.5001 62.6001 21.4001 62.6001 21.2001C62.6001 21.1001 62.6001 20.9001 62.7001 20.8001C62.8001 20.7001 62.9001 20.6001 63.1001 20.6001C63.3001 20.6001 63.4001 20.7001 63.5001 20.8001C63.6001 20.9001 63.6001 21.0001 63.6001 21.2001C63.6001 21.4001 63.6001 21.5001 63.5001 21.6001C63.4001 21.7001 63.3001 21.8001 63.1001 21.8001ZM62.7001 25.7001V22.3001H63.6001V25.7001H62.7001Z" fill="#F90052"/>
<path d="M64.1001 23.0999V22.2999H66.6001V23.0999H64.1001ZM64.9001 25.6999V20.8999H65.8001V25.6999H64.9001Z" fill="#F90052"/>
<path d="M68.4999 25.7999C68.1999 25.7999 67.8999 25.6999 67.6999 25.5999C67.4999 25.3999 67.2999 25.1999 67.0999 24.9999C66.9999 24.6999 66.8999 24.3999 66.8999 24.0999C66.8999 23.7999 66.9999 23.4999 67.0999 23.1999C67.1999 22.8999 67.3999 22.6999 67.6999 22.5999C67.8999 22.3999 68.1999 22.3999 68.4999 22.3999C68.6999 22.3999 68.9999 22.3999 69.1999 22.4999C69.3999 22.5999 69.4999 22.6999 69.6999 22.8999C69.7999 23.0999 69.8999 23.2999 69.8999 23.4999V24.6999C69.8999 24.8999 69.7999 25.0999 69.6999 25.2999C69.5999 25.4999 69.3999 25.5999 69.1999 25.6999C68.9999 25.6999 68.7999 25.7999 68.4999 25.7999ZM68.6999 24.8999C68.9999 24.8999 69.1999 24.7999 69.2999 24.5999C69.4999 24.3999 69.4999 24.1999 69.4999 23.8999C69.4999 23.6999 69.4999 23.5999 69.3999 23.3999C69.2999 23.2999 69.1999 23.1999 69.0999 23.0999C68.9999 22.9999 68.7999 22.9999 68.5999 22.9999C68.3999 22.9999 68.2999 22.9999 68.1999 23.0999C68.0999 23.1999 67.9999 23.2999 67.8999 23.3999C67.7999 23.4999 67.7999 23.6999 67.7999 23.8999C67.7999 24.0999 67.7999 24.1999 67.8999 24.3999C67.9999 24.4999 68.0999 24.5999 68.1999 24.6999C68.3999 24.8999 68.4999 24.8999 68.6999 24.8999ZM69.4999 25.6999V24.7999L69.5999 23.9999L69.4999 23.1999V22.3999H70.3999V25.7999H69.4999V25.6999Z" fill="#F90052"/>
<path d="M71.2002 25.7001V20.6001H72.1002V25.7001H71.2002Z" fill="#F90052"/>
<path d="M74.2002 25.8002C74.0002 25.8002 73.8002 25.8002 73.6002 25.7002C73.4002 25.6002 73.2002 25.6002 73.1002 25.5002C72.9002 25.4002 72.8002 25.3002 72.7002 25.2002L73.3002 24.6002C73.4002 24.7002 73.6002 24.8002 73.7002 24.9002C73.8002 25.0002 74.0002 25.0002 74.1002 25.0002C74.3002 25.0002 74.4002 25.0002 74.4002 24.9002C74.5002 24.9002 74.5002 24.8002 74.5002 24.7002C74.5002 24.6002 74.5002 24.5002 74.4002 24.5002C74.3002 24.4002 74.2002 24.4002 74.1002 24.4002C74.0002 24.4002 73.8002 24.3002 73.7002 24.3002C73.6002 24.3002 73.4002 24.2002 73.3002 24.1002C73.2002 24.0002 73.1002 23.9002 73.0002 23.8002C72.9002 23.7002 72.9002 23.5002 72.9002 23.3002C72.9002 23.1002 73.0002 22.9002 73.1002 22.7002C73.2002 22.5002 73.4002 22.4002 73.6002 22.3002C73.8002 22.2002 74.0002 22.2002 74.3002 22.2002C74.6002 22.2002 74.8002 22.2002 75.1002 22.3002C75.3002 22.4002 75.5002 22.5002 75.7002 22.7002L75.0002 23.4002C74.9002 23.3002 74.8002 23.2002 74.7002 23.1002C74.5002 23.0002 74.4002 23.0002 74.2002 23.0002C74.1002 23.0002 74.0002 23.0002 73.9002 23.1002C73.8002 23.1002 73.8002 23.2002 73.8002 23.3002C73.8002 23.4002 73.8002 23.5002 73.9002 23.5002C74.0002 23.5002 74.1002 23.6002 74.2002 23.6002C74.3002 23.6002 74.5002 23.7002 74.6002 23.7002C74.7002 23.7002 74.9002 23.8002 75.0002 23.9002C75.1002 24.0002 75.2002 24.1002 75.3002 24.2002C75.4002 24.3002 75.4002 24.5002 75.4002 24.7002C75.4002 25.0002 75.3002 25.3002 75.0002 25.5002C74.9002 25.7002 74.6002 25.8002 74.2002 25.8002Z" fill="#050831"/>
<path d="M77.6999 25.7999C77.3999 25.7999 76.9999 25.6999 76.7999 25.5999C76.4999 25.3999 76.2999 25.1999 76.0999 24.9999C75.8999 24.6999 75.8999 24.3999 75.8999 24.0999C75.8999 23.7999 75.9999 23.4999 76.0999 23.1999C76.2999 22.8999 76.4999 22.6999 76.7999 22.5999C77.0999 22.3999 77.3999 22.3999 77.6999 22.3999C77.9999 22.3999 78.1999 22.3999 78.3999 22.4999C78.5999 22.5999 78.7999 22.6999 78.9999 22.8999L78.3999 23.4999C78.2999 23.3999 78.1999 23.2999 78.0999 23.2999C77.9999 23.1999 77.7999 23.1999 77.6999 23.1999C77.4999 23.1999 77.3999 23.1999 77.1999 23.2999C77.0999 23.3999 76.9999 23.4999 76.8999 23.5999C76.7999 23.6999 76.7999 23.8999 76.7999 24.0999C76.7999 24.2999 76.7999 24.3999 76.8999 24.5999C76.9999 24.6999 77.0999 24.7999 77.1999 24.8999C77.2999 24.9999 77.4999 24.9999 77.6999 24.9999C77.8999 24.9999 77.9999 24.9999 78.0999 24.8999C78.1999 24.7999 78.2999 24.7999 78.3999 24.6999L78.9999 25.2999C78.7999 25.4999 78.5999 25.5999 78.3999 25.6999C78.1999 25.6999 77.9999 25.7999 77.6999 25.7999Z" fill="#050831"/>
<path d="M79.6001 25.7001V20.6001H80.5001V25.7001H79.6001ZM81.9001 25.7001V23.7001C81.9001 23.5001 81.8001 23.3001 81.7001 23.2001C81.6001 23.1001 81.4001 23.0001 81.2001 23.0001C81.1001 23.0001 81.0001 23.0001 80.8001 23.1001C80.7001 23.2001 80.6001 23.2001 80.6001 23.3001C80.5001 23.4001 80.5001 23.5001 80.5001 23.7001L80.1001 23.5001C80.1001 23.2001 80.2001 23.0001 80.3001 22.8001C80.4001 22.6001 80.6001 22.4001 80.8001 22.3001C81.0001 22.2001 81.2001 22.1001 81.5001 22.1001C81.8001 22.1001 82.0001 22.2001 82.2001 22.3001C82.4001 22.4001 82.6001 22.6001 82.7001 22.8001C82.8001 23.0001 82.9001 23.2001 82.9001 23.5001V25.7001H81.9001Z" fill="#050831"/>
<path d="M85.1999 25.7999C84.8999 25.7999 84.4999 25.6999 84.2999 25.5999C83.9999 25.3999 83.7999 25.1999 83.5999 24.9999C83.3999 24.6999 83.3999 24.3999 83.3999 24.0999C83.3999 23.7999 83.4999 23.4999 83.5999 23.1999C83.7999 22.8999 83.9999 22.6999 84.2999 22.5999C84.5999 22.3999 84.8999 22.3999 85.1999 22.3999C85.4999 22.3999 85.8999 22.4999 86.0999 22.5999C86.3999 22.7999 86.5999 22.9999 86.7999 23.1999C86.9999 23.4999 86.9999 23.7999 86.9999 24.0999C86.9999 24.3999 86.8999 24.6999 86.7999 24.9999C86.5999 25.2999 86.3999 25.4999 86.0999 25.5999C85.7999 25.6999 85.4999 25.7999 85.1999 25.7999ZM85.1999 24.8999C85.3999 24.8999 85.4999 24.8999 85.6999 24.7999C85.7999 24.6999 85.8999 24.5999 85.9999 24.4999C86.0999 24.3999 86.0999 24.1999 86.0999 23.9999C86.0999 23.7999 86.0999 23.6999 85.9999 23.4999C85.8999 23.3999 85.7999 23.2999 85.6999 23.1999C85.5999 23.0999 85.3999 23.0999 85.1999 23.0999C84.9999 23.0999 84.8999 23.0999 84.6999 23.1999C84.5999 23.2999 84.4999 23.3999 84.3999 23.4999C84.2999 23.5999 84.2999 23.7999 84.2999 23.9999C84.2999 24.1999 84.2999 24.2999 84.3999 24.4999C84.4999 24.5999 84.5999 24.6999 84.6999 24.7999C84.7999 24.8999 84.9999 24.8999 85.1999 24.8999Z" fill="#050831"/>
<path d="M89.1999 25.7999C88.8999 25.7999 88.4999 25.6999 88.2999 25.5999C87.9999 25.3999 87.7999 25.1999 87.5999 24.9999C87.3999 24.6999 87.3999 24.3999 87.3999 24.0999C87.3999 23.7999 87.4999 23.4999 87.5999 23.1999C87.7999 22.8999 87.9999 22.6999 88.2999 22.5999C88.5999 22.3999 88.8999 22.3999 89.1999 22.3999C89.4999 22.3999 89.8999 22.4999 90.0999 22.5999C90.3999 22.7999 90.5999 22.9999 90.7999 23.1999C90.9999 23.4999 90.9999 23.7999 90.9999 24.0999C90.9999 24.3999 90.8999 24.6999 90.7999 24.9999C90.5999 25.2999 90.3999 25.4999 90.0999 25.5999C89.8999 25.6999 89.4999 25.7999 89.1999 25.7999ZM89.1999 24.8999C89.3999 24.8999 89.4999 24.8999 89.6999 24.7999C89.7999 24.6999 89.8999 24.5999 89.9999 24.4999C90.0999 24.3999 90.0999 24.1999 90.0999 23.9999C90.0999 23.7999 90.0999 23.6999 89.9999 23.4999C89.8999 23.3999 89.7999 23.2999 89.6999 23.1999C89.5999 23.0999 89.3999 23.0999 89.1999 23.0999C88.9999 23.0999 88.8999 23.0999 88.6999 23.1999C88.5999 23.2999 88.4999 23.3999 88.3999 23.4999C88.2999 23.5999 88.2999 23.7999 88.2999 23.9999C88.2999 24.1999 88.2999 24.2999 88.3999 24.4999C88.4999 24.5999 88.5999 24.6999 88.6999 24.7999C88.8999 24.8999 88.9999 24.8999 89.1999 24.8999Z" fill="#050831"/>
<path d="M91.6001 25.7001V20.6001H92.5001V25.7001H91.6001Z" fill="#050831"/>
<path d="M95.4003 3.29971C95.4003 3.39971 95.3003 3.39971 95.3003 3.39971C95.3003 3.39971 95.2003 3.39971 95.2003 3.29971L94.8003 2.79971H94.7003V3.19971C94.7003 3.29971 94.6003 3.39971 94.5003 3.39971C94.4003 3.39971 94.3003 3.29971 94.3003 3.19971V1.89971C94.3003 1.79971 94.4003 1.69971 94.5003 1.69971H94.9003C95.2003 1.69971 95.5003 1.89971 95.5003 2.19971C95.5003 2.39971 95.4003 2.59971 95.2003 2.69971L95.5003 2.99971C95.4003 3.09971 95.4003 3.19971 95.4003 3.29971ZM95.1003 2.29971C95.1003 2.19971 95.0003 1.99971 94.8003 1.99971H94.6003V2.49971H94.8003C95.0003 2.49971 95.1003 2.39971 95.1003 2.29971Z" fill="#050831"/>
<path d="M15.3001 9.1999V13.7999C15.3001 14.1999 15.1001 14.5999 14.9001 14.8999C13.4001 16.4999 11.2001 17.4999 9.0001 17.4999H8.7001C4.2001 17.4999 0.600098 13.8999 0.600098 9.3999V8.9999C0.600098 4.4999 4.2001 0.899902 8.7001 0.899902H9.0001C10.6001 0.899902 12.1001 1.3999 13.5001 2.1999C13.9001 2.4999 14.2001 2.8999 14.2001 3.3999C14.2001 3.8999 14.0001 4.3999 13.7001 4.6999C13.1001 5.1999 12.3001 5.2999 11.7001 4.7999C10.9001 4.2999 10.0001 3.9999 9.0001 3.9999H8.7001C6.0001 3.9999 3.8001 6.1999 3.8001 8.8999V9.1999C3.8001 11.8999 6.0001 14.0999 8.7001 14.0999H9.0001C10.2001 14.0999 11.3001 13.6999 12.1001 12.9999V10.6999H10.4001C9.5001 10.6999 8.8001 9.9999 8.8001 9.0999C8.8001 8.1999 9.5001 7.4999 10.4001 7.4999H13.7001C14.6001 7.5999 15.3001 8.2999 15.3001 9.1999Z" fill="#050831"/>
<path d="M43.8999 2.4999V15.7999C43.8999 16.6999 43.1999 17.3999 42.2999 17.3999H41.4999C40.8999 17.3999 40.2999 17.0999 40.0999 16.4999L35.5999 7.5999V15.6999C35.5999 16.5999 34.8999 17.2999 33.9999 17.2999C33.0999 17.2999 32.3999 16.5999 32.3999 15.6999V2.4999C32.3999 1.5999 33.0999 0.899902 33.9999 0.899902H34.7999C35.3999 0.899902 35.9999 1.1999 36.1999 1.7999L40.6999 10.6999V2.5999C40.6999 1.6999 41.3999 0.999901 42.2999 0.999901C43.0999 0.899901 43.8999 1.5999 43.8999 2.4999Z" fill="#050831"/>
<path d="M58.1 2.4999V11.6999C58.1 14.7999 55.6 17.3999 52.4 17.3999C49.2 17.4999 46.5 14.6999 46.5 11.4999V2.4999C46.5 1.5999 47.2 0.899902 48.1 0.899902C49 0.899902 49.7 1.5999 49.7 2.4999V11.5999C49.7 12.8999 50.7 13.9999 52 14.1999C52.7 14.2999 53.4 13.9999 53.9 13.5999C54.4 13.0999 54.7 12.3999 54.7 11.6999V2.4999C54.7 1.5999 55.4 0.899902 56.3 0.899902C57.4 0.899902 58.1 1.5999 58.1 2.4999Z" fill="#050831"/>
<path d="M64.0003 2.4999V15.7999C64.0003 16.6999 63.3003 17.3999 62.4003 17.3999C61.5003 17.3999 60.8003 16.6999 60.8003 15.7999V2.4999C60.8003 1.5999 61.5003 0.899902 62.4003 0.899902C63.3003 0.899902 64.0003 1.5999 64.0003 2.4999Z" fill="#050831"/>
<path d="M78.3003 2.4999V15.7999C78.3003 16.6999 77.6003 17.3999 76.7003 17.3999H75.9003C75.3003 17.3999 74.7003 17.0999 74.5003 16.4999L70.0003 7.6999V15.7999C70.0003 16.6999 69.3003 17.3999 68.4003 17.3999C67.5003 17.3999 66.8003 16.6999 66.8003 15.7999V2.4999C66.8003 1.5999 67.5003 0.899902 68.4003 0.899902H69.2003C69.8003 0.899902 70.4003 1.1999 70.6003 1.7999L75.1003 10.6999V2.5999C75.1003 1.6999 75.8003 0.999901 76.7003 0.999901C77.6003 0.899901 78.3003 1.5999 78.3003 2.4999Z" fill="#050831"/>
<path d="M29.6001 2.3999V2.4999C29.6001 3.2999 28.9001 3.9999 28.1001 3.9999H19.6001C18.8001 3.9999 18.1001 3.2999 18.1001 2.4999V2.3999C18.1001 1.5999 18.8001 0.899902 19.6001 0.899902H28.1001C28.9001 0.899902 29.6001 1.5999 29.6001 2.3999Z" fill="#D5E6F7"/>
<path d="M29.6001 9.1001V9.2001C29.6001 10.0001 28.9001 10.7001 28.1001 10.7001H19.6001C18.8001 10.7001 18.1001 10.0001 18.1001 9.2001V9.1001C18.1001 8.3001 18.8001 7.6001 19.6001 7.6001H28.1001C28.9001 7.6001 29.6001 8.3001 29.6001 9.1001Z" fill="#D5ADFB"/>
<path d="M29.6001 15.6997V15.7997C29.6001 16.5997 28.9001 17.2997 28.1001 17.2997H19.6001C18.8001 17.2997 18.1001 16.5997 18.1001 15.7997V15.6997C18.1001 14.8997 18.8001 14.1997 19.6001 14.1997H28.1001C28.9001 14.1997 29.6001 14.8997 29.6001 15.6997Z" fill="#F90052"/>
<path d="M92.5 2.3999V2.4999C92.5 3.2999 91.8 3.9999 91 3.9999H82.5C81.7 3.9999 81 3.2999 81 2.4999V2.3999C81 1.5999 81.7 0.899902 82.5 0.899902H91C91.9 0.899902 92.5 1.5999 92.5 2.3999Z" fill="#050831"/>
<path d="M92.5 9.1001V9.2001C92.5 10.0001 91.8 10.7001 91 10.7001H82.5C81.7 10.7001 81 10.0001 81 9.2001V9.1001C81 8.3001 81.7 7.6001 82.5 7.6001H91C91.9 7.6001 92.5 8.3001 92.5 9.1001Z" fill="#050831"/>
<path d="M92.5 15.6997V15.7997C92.5 16.5997 91.8 17.2997 91 17.2997H82.5C81.7 17.2997 81 16.5997 81 15.7997V15.6997C81 14.8997 81.7 14.1997 82.5 14.1997H91C91.9 14.1997 92.5 14.8997 92.5 15.6997Z" fill="#050831"/>
<path d="M94.8002 1.0999C95.6002 1.0999 96.2002 1.6999 96.2002 2.4999C96.2002 3.2999 95.6002 3.8999 94.8002 3.8999C94.0002 3.8999 93.4002 3.2999 93.4002 2.4999C93.4002 1.6999 94.0002 1.0999 94.8002 1.0999ZM94.8002 0.899902C93.9002 0.899902 93.2002 1.5999 93.2002 2.4999C93.2002 3.3999 93.9002 4.0999 94.8002 4.0999C95.7002 4.0999 96.4002 3.3999 96.4002 2.4999C96.4002 1.5999 95.7002 0.899902 94.8002 0.899902Z" fill="#050831"/>
</svg>
